<?xml version="1.0" encoding="UTF-8" standalone="no"?>
<!-- Created with Inkscape (http://www.inkscape.org/) -->

<svg
   xmlns:dc="http://purl.org/dc/elements/1.1/"
   xmlns:cc="http://creativecommons.org/ns#"
   xmlns:rdf="http://www.w3.org/1999/02/22-rdf-syntax-ns#"
   xmlns:svg="http://www.w3.org/2000/svg"
   xmlns="http://www.w3.org/2000/svg"
   xmlns:xlink="http://www.w3.org/1999/xlink"
   xmlns:sodipodi="http://sodipodi.sourceforge.net/DTD/sodipodi-0.dtd"
   xmlns:inkscape="http://www.inkscape.org/namespaces/inkscape"
   width="256"
   height="256"
   id="svg2"
   version="1.1"
   inkscape:version="0.48.2 r9819"
   sodipodi:docname="face-airspeed-aerostar602p.svg"
   inkscape:export-filename="/home/tigert/git/gitorious.org/mik-ftd/OH-TWN/Panels/face-airspeed-aerostar602p.png"
   inkscape:export-xdpi="180"
   inkscape:export-ydpi="180">
  <defs
     id="defs4">
    <linearGradient
       id="linearGradient4362"
       inkscape:collect="always">
      <stop
         id="stop4364"
         offset="0"
         style="stop-color:#262626;stop-opacity:1" />
      <stop
         id="stop4366"
         offset="1"
         style="stop-color:#151515;stop-opacity:1" />
    </linearGradient>
    <filter
       inkscape:collect="always"
       id="filter4754"
       color-interpolation-filters="sRGB">
      <feGaussianBlur
         inkscape:collect="always"
         stdDeviation="3.6015787"
         id="feGaussianBlur4756" />
    </filter>
    <linearGradient
       inkscape:collect="always"
       xlink:href="#linearGradient4362"
       id="linearGradient4838"
       gradientUnits="userSpaceOnUse"
       gradientTransform="matrix(0.98901575,0,0,0.98901575,161.27339,-366.93857)"
       x1="113.08239"
       y1="30.491014"
       x2="136.55351"
       y2="189.81007" />
    <filter
       inkscape:collect="always"
       id="filter3871">
      <feGaussianBlur
         inkscape:collect="always"
         stdDeviation="0.90039467"
         id="feGaussianBlur3873" />
    </filter>
  </defs>
  <sodipodi:namedview
     id="base"
     pagecolor="#ffffff"
     bordercolor="#666666"
     borderopacity="1.0"
     inkscape:pageopacity="0.0"
     inkscape:pageshadow="2"
     inkscape:zoom="2"
     inkscape:cx="159.21798"
     inkscape:cy="143.46044"
     inkscape:document-units="px"
     inkscape:current-layer="layer3"
     showgrid="false"
     inkscape:window-width="1280"
     inkscape:window-height="745"
     inkscape:window-x="0"
     inkscape:window-y="26"
     inkscape:window-maximized="1"
     inkscape:snap-global="true"
     inkscape:snap-bbox="true"
     inkscape:snap-bbox-midpoints="true"
     inkscape:snap-nodes="true"
     borderlayer="true"
     fit-margin-top="2"
     fit-margin-left="2"
     fit-margin-right="2"
     fit-margin-bottom="2"
     inkscape:snap-page="true"
     showguides="true"
     inkscape:guide-bbox="true"
     inkscape:bbox-paths="true"
     inkscape:bbox-nodes="true"
     inkscape:snap-bbox-edge-midpoints="true"
     inkscape:snap-object-midpoints="true">
    <inkscape:grid
       type="xygrid"
       id="grid4740"
       empspacing="5"
       visible="true"
       enabled="true"
       snapvisiblegridlinesonly="true" />
  </sodipodi:namedview>
  <metadata
     id="metadata7">
    <rdf:RDF>
      <cc:Work
         rdf:about="">
        <dc:format>image/svg+xml</dc:format>
        <dc:type
           rdf:resource="http://purl.org/dc/dcmitype/StillImage" />
        <dc:title />
      </cc:Work>
    </rdf:RDF>
  </metadata>
  <g
     inkscape:label="Layer 1"
     inkscape:groupmode="layer"
     id="layer1"
     transform="translate(-3.4476662e-8,995.63777)" />
  <g
     inkscape:groupmode="layer"
     id="layer2"
     inkscape:label="photo"
     style="display:inline"
     transform="translate(-3.4476662e-8,995.63777)" />
  <g
     inkscape:groupmode="layer"
     id="layer3"
     inkscape:label="gauge"
     style="display:inline"
     transform="translate(-3.4476662e-8,995.63777)">
    <text
       xml:space="preserve"
       style="font-size:56.23934937px;font-style:normal;font-weight:normal;line-height:125%;letter-spacing:0px;word-spacing:0px;fill:#ffffff;fill-opacity:1;stroke:none;font-family:Sans"
       x="68.742241"
       y="-185.9588"
       id="text4150"
       sodipodi:linespacing="125%"><tspan
         sodipodi:role="line"
         x="68.742241"
         y="-185.9588"
         style="font-size:19.68377113px;font-style:normal;font-variant:normal;font-weight:bold;font-stretch:normal;fill:#ffffff;font-family:Droid Sans;-inkscape-font-specification:Droid Sans Bold"
         id="tspan4152" /></text>
    <path
       inkscape:export-filename="/home/tigert/git/gitorious.org/mik-ftd/OH-TWN/Panels/path5019.png"
       transform="matrix(1.3882801,0,0,1.3882801,-255.06452,-490.90967)"
       d="m 365.96687,-271.36316 c 0,49.72743 -40.31205,90.03947 -90.03947,90.03947 -49.72743,0 -90.03947,-40.31204 -90.03947,-90.03947 0,-49.72742 40.31204,-90.03947 90.03947,-90.03947 49.72742,0 90.03947,40.31205 90.03947,90.03947 z"
       sodipodi:ry="90.039467"
       sodipodi:rx="90.039467"
       sodipodi:cy="-271.36316"
       sodipodi:cx="275.9274"
       id="path5019"
       style="fill:#000000;fill-opacity:1;stroke:none;filter:url(#filter3871)"
       sodipodi:type="arc"
       inkscape:export-xdpi="89.999977"
       inkscape:export-ydpi="89.999977" />
    <path
       inkscape:export-ydpi="89.999977"
       inkscape:export-xdpi="89.999977"
       sodipodi:type="arc"
       style="fill:#000000;fill-opacity:1;stroke:none"
       id="path3856"
       sodipodi:cx="275.9274"
       sodipodi:cy="-271.36316"
       sodipodi:rx="90.039467"
       sodipodi:ry="90.039467"
       d="m 365.96687,-271.36316 c 0,49.72743 -40.31205,90.03947 -90.03947,90.03947 -49.72743,0 -90.03947,-40.31204 -90.03947,-90.03947 0,-49.72742 40.31204,-90.03947 90.03947,-90.03947 49.72742,0 90.03947,40.31205 90.03947,90.03947 z"
       transform="matrix(1.3660676,0,0,1.3660673,-248.93547,-496.93744)" />
    <path
       transform="matrix(1.246412,0,0,1.2464117,-215.91923,-529.4076)"
       d="m 365.96687,-271.36316 c 0,49.72743 -40.31205,90.03947 -90.03947,90.03947 -49.72743,0 -90.03947,-40.31204 -90.03947,-90.03947 0,-49.72742 40.31204,-90.03947 90.03947,-90.03947 49.72742,0 90.03947,40.31205 90.03947,90.03947 z"
       sodipodi:ry="90.039467"
       sodipodi:rx="90.039467"
       sodipodi:cy="-271.36316"
       sodipodi:cx="275.9274"
       id="path4728"
       style="fill:url(#linearGradient4838);fill-opacity:1;stroke:none;filter:url(#filter4754)"
       sodipodi:type="arc" />
    <path
       sodipodi:open="true"
       sodipodi:end="6.6102045"
       sodipodi:start="6.0122383"
       sodipodi:type="arc"
       style="fill:none;stroke:#ffcc00;stroke-width:4.81729698;stroke-miterlimit:4;stroke-opacity:1;stroke-dasharray:none"
       id="path3794"
       sodipodi:cx="129.54135"
       sodipodi:cy="128.98628"
       sodipodi:rx="76.460999"
       sodipodi:ry="76.460999"
       d="m 203.21289,108.52195 c 4.10965,14.79474 3.66967,30.48409 -1.26266,45.02526"
       transform="matrix(-1.2843563,-0.67964615,0.67964584,-1.2843572,206.5048,-613.68725)"
       inkscape:transform-center-x="59.621725"
       inkscape:transform-center-y="22.502714" />
    <path
       sodipodi:type="arc"
       style="fill:#000000;fill-opacity:1;stroke:none"
       id="path3868"
       sodipodi:cx="275.9274"
       sodipodi:cy="-271.36316"
       sodipodi:rx="90.039467"
       sodipodi:ry="90.039467"
       d="m 365.96687,-271.36316 c 0,49.72743 -40.31205,90.03947 -90.03947,90.03947 -49.72743,0 -90.03947,-40.31204 -90.03947,-90.03947 0,-49.72742 40.31204,-90.03947 90.03947,-90.03947 49.72742,0 90.03947,40.31205 90.03947,90.03947 z"
       transform="matrix(-0.08395602,-0.0444272,0.04442719,-0.083956,163.22165,-878.16172)"
       inkscape:transform-center-y="-1.9784094e-05" />
    <text
       xml:space="preserve"
       style="font-size:54.04249191px;font-style:normal;font-weight:normal;line-height:125%;letter-spacing:0px;word-spacing:0px;fill:#ffffff;fill-opacity:1;stroke:none;font-family:Sans"
       x="146.61475"
       y="-940.5213"
       id="text3884"
       sodipodi:linespacing="125%"
       inkscape:transform-center-x="83.82672"
       inkscape:transform-center-y="66.106139"><tspan
         sodipodi:role="line"
         x="146.61475"
         y="-940.5213"
         style="font-size:12px;font-style:normal;font-variant:normal;font-weight:bold;font-stretch:normal;fill:#ffffff;font-family:MS 33558;-inkscape-font-specification:MS 33558 Bold"
         id="tspan3886">40</tspan></text>
    <text
       xml:space="preserve"
       style="font-size:54.04249191px;font-style:normal;font-weight:normal;line-height:125%;letter-spacing:0px;word-spacing:0px;fill:#ffffff;fill-opacity:1;stroke:none;font-family:Sans"
       x="167.94672"
       y="-925.0473"
       id="text3908"
       sodipodi:linespacing="125%"
       inkscape:transform-center-x="-67.1186"
       inkscape:transform-center-y="-83.421204"><tspan
         sodipodi:role="line"
         x="167.94672"
         y="-925.0473"
         style="font-size:14px;font-style:normal;font-variant:normal;font-weight:bold;font-stretch:normal;fill:#ffffff;font-family:MS 33558;-inkscape-font-specification:MS 33558 Bold"
         id="tspan3910">60</tspan></text>
    <g
       style="font-size:47.96342087px;font-style:normal;font-weight:normal;line-height:125%;letter-spacing:0px;word-spacing:0px;fill:#ffffff;fill-opacity:1;stroke:none;font-family:Sans"
       id="text3928">
      <path
         d="m 105.69083,-903.11795 -1.44914,-4.00421 -1.45868,4.00421 2.90782,0 m -1.44914,-4.00421 1.44914,4.00421 -1.44914,-4.00421 m -3.68006,6.21606 c 0.50847,-1.40147 1.01694,-2.80135 1.52541,-4.19965 0.51165,-1.40147 1.0233,-2.80294 1.53495,-4.20442 0.10487,-0.28919 0.31303,-0.43537 0.62447,-0.43856 0.31143,-0.003 0.52118,0.14302 0.62923,0.43856 l 3.05559,8.42791 c 0.0953,0.44809 -0.0413,0.73728 -0.40995,0.86757 -0.36865,0.1303 -0.65307,-0.003 -0.85328,-0.40042 l -0.49099,-1.36333 -3.88504,0 -0.47669,1.32997 c -0.20339,0.40042 -0.49258,0.5323 -0.86758,0.39565 -0.375,-0.13983 -0.5037,-0.42426 -0.38612,-0.85328"
         style="font-size:9.76264477px;font-variant:normal;font-weight:bold;font-stretch:normal;text-align:center;text-anchor:middle;fill:#ffffff;font-family:MS 33558;-inkscape-font-specification:MS 33558 Bold"
         id="path3246" />
      <path
         d="m 110.23371,-900.64392 c -0.0699,0.44809 -0.29714,0.67055 -0.68167,0.66737 -0.38136,0 -0.6054,-0.22246 -0.67214,-0.66737 l 0,-8.42791 c 0.0667,-0.44808 0.29078,-0.67212 0.67214,-0.67213 0.38453,-0.003 0.61175,0.22087 0.68167,0.67213 l 0,8.42791"
         style="font-size:9.76264477px;font-variant:normal;font-weight:bold;font-stretch:normal;text-align:center;text-anchor:middle;fill:#ffffff;font-family:MS 33558;-inkscape-font-specification:MS 33558 Bold"
         id="path3248" />
      <path
         d="m 117.60812,-901.0205 c 0.20339,0.3591 0.14618,0.66101 -0.1716,0.90571 -0.15255,0.10805 -0.32893,0.1446 -0.52913,0.10964 -0.19704,-0.035 -0.34164,-0.13348 -0.43379,-0.29555 l -2.35009,-3.71343 -1.19173,0 0,3.35591 c 0,0.27648 -0.12553,0.47669 -0.37659,0.60063 -0.25106,0.12076 -0.48622,0.0969 -0.7055,-0.0715 -0.17479,-0.1303 -0.26218,-0.30667 -0.26218,-0.52913 l 0,-8.42314 c 0,-0.18431 0.0636,-0.34162 0.19068,-0.47193 0.13029,-0.13028 0.28919,-0.19543 0.47669,-0.19544 l 2.96025,0 c 0.71186,10e-6 1.32997,0.22723 1.85433,0.68167 0.52436,0.45128 0.8501,1.0249 0.97722,1.72086 0.13347,0.74682 -0.0254,1.44597 -0.47669,2.09744 -0.4481,0.64831 -1.04396,1.04237 -1.78759,1.1822 l -0.0906,0.0143 1.9163,3.03176 m -2.39299,-4.33313 c 0.32415,0 0.62288,-0.0985 0.89618,-0.29555 0.27648,-0.19703 0.46239,-0.45444 0.55773,-0.77224 0.14936,-0.4894 0.081,-0.93113 -0.20498,-1.3252 -0.28602,-0.39724 -0.68008,-0.61652 -1.18219,-0.65784 l -2.35009,0 0,3.05083 2.28335,0"
         style="font-size:9.76264477px;font-variant:normal;font-weight:bold;font-stretch:normal;text-align:center;text-anchor:middle;fill:#ffffff;font-family:MS 33558;-inkscape-font-specification:MS 33558 Bold"
         id="path3250" />
      <path
         d="m 124.16263,-905.18202 0.0763,0.0334 0.0858,0.0429 0.0763,0.0429 c 0.0222,0.0159 0.0461,0.0318 0.0715,0.0477 0.0286,0.0127 0.0556,0.027 0.081,0.0429 0.62923,0.41314 1.01853,0.98517 1.1679,1.71609 0.0572,0.28602 0.0699,0.57998 0.0381,0.88188 -0.0509,0.4322 -0.20339,0.83262 -0.45762,1.20126 -0.25107,0.36547 -0.56727,0.64831 -0.94862,0.84851 -0.40996,0.21611 -0.83421,0.32416 -1.27277,0.32416 -0.73728,0 -1.4412,-0.0937 -2.11174,-0.28125 -0.67055,-0.19068 -1.14883,-0.69756 -1.43484,-1.52065 -0.0381,-0.10487 -0.0667,-0.21292 -0.0858,-0.32415 -0.0191,-0.11123 -0.0413,-0.22245 -0.0667,-0.33368 -0.0477,-0.22881 0.008,-0.43061 0.16684,-0.6054 0.16207,-0.17479 0.36228,-0.24152 0.60063,-0.20021 0.25106,0.0508 0.42584,0.20657 0.52436,0.46716 l 0.0143,0.0429 c 0.15254,0.68961 0.4179,1.10116 0.79608,1.23463 0.38135,0.13347 0.91048,0.19385 1.58738,0.18114 0.62287,0 1.05031,-0.29237 1.2823,-0.87711 0.10169,-0.26059 0.11758,-0.53071 0.0477,-0.81038 -0.0699,-0.28283 -0.20816,-0.518 -0.41472,-0.7055 -0.0922,-0.0794 -0.21293,-0.15413 -0.36229,-0.22405 l -2.20708,-0.96768 -0.0715,-0.0381 c -0.7214,-0.38135 -1.16949,-0.92319 -1.34427,-1.62552 -0.21293,-0.81355 -0.0652,-1.54289 0.44332,-2.18802 0.51165,-0.64829 1.18219,-0.97244 2.01164,-0.97245 l 0.52436,0.0143 c 0.1716,0.0318 0.33686,0.0636 0.49576,0.0953 0.15889,0.0286 0.31938,0.0795 0.48146,0.15254 0.40041,0.18751 0.70708,0.44492 0.92001,0.77224 0.21292,0.32734 0.40518,0.68168 0.5768,1.06302 0.0159,0.035 0.0302,0.0763 0.0429,0.12394 0.0349,0.15573 0.0191,0.29715 -0.0477,0.42426 -0.0381,0.0795 -0.0779,0.13984 -0.11917,0.18114 -0.0413,0.0413 -0.0747,0.0699 -0.10011,0.0858 -0.16525,0.11759 -0.3464,0.15255 -0.54342,0.10487 -0.19704,-0.0445 -0.34799,-0.1716 -0.45286,-0.38135 -0.0826,-0.18432 -0.17162,-0.37182 -0.26695,-0.5625 -0.0922,-0.19385 -0.22246,-0.35433 -0.39089,-0.48146 -0.0699,-0.0508 -0.13824,-0.0874 -0.20497,-0.10964 -0.0636,-0.0254 -0.13507,-0.0524 -0.21451,-0.081 l -0.30985,-0.0524 -0.43856,-0.0143 c -0.42585,0.006 -0.75159,0.19068 -0.97722,0.55296 -0.15254,0.232 -0.20974,0.491 -0.17161,0.77701 0.0445,0.35276 0.20974,0.62606 0.49576,0.81991 0.0127,0.01 0.027,0.0207 0.0429,0.0334 0.0159,0.01 0.0334,0.0191 0.0524,0.0286 l 0.0524,0.0238 0.0572,0.0238 2.20231,0.97245"
         style="font-size:9.76264477px;font-variant:normal;font-weight:bold;font-stretch:normal;text-align:center;text-anchor:middle;fill:#ffffff;font-family:MS 33558;-inkscape-font-specification:MS 33558 Bold"
         id="path3252" />
      <path
         d="m 130.62181,-909.74873 0.0906,0 c 0.40677,0.0286 0.78177,0.12077 1.12499,0.27648 0.65783,0.30827 1.1234,0.81515 1.39671,1.52065 0.27329,0.70551 0.27012,1.39353 -0.01,2.06407 -0.22564,0.53073 -0.55932,0.94704 -1.00105,1.24894 -0.44174,0.29873 -0.94544,0.46557 -1.51111,0.50052 l -0.0906,0.005 -2.31672,0 0,3.47508 c -0.0572,0.44809 -0.28284,0.67214 -0.67691,0.67214 -0.39406,0 -0.61811,-0.22405 -0.67213,-0.67214 l 0,-8.42314 c 0.0477,-0.39406 0.25741,-0.61651 0.62923,-0.66737 l 0.0429,0 2.99363,0 m 0,1.34427 -2.31672,0 0,2.92212 2.31672,0 c 0.36228,10e-6 0.68166,-0.12075 0.95815,-0.36228 0.27965,-0.24152 0.44332,-0.54343 0.49099,-0.90572 0.0572,-0.43855 -0.0604,-0.82308 -0.35275,-1.15359 -0.29238,-0.33368 -0.65784,-0.50052 -1.09639,-0.50053"
         style="font-size:9.76264477px;font-variant:normal;font-weight:bold;font-stretch:normal;text-align:center;text-anchor:middle;fill:#ffffff;font-family:MS 33558;-inkscape-font-specification:MS 33558 Bold"
         id="path3254" />
      <path
         d="m 140.08414,-908.41876 -3.95178,0 0,2.6075 3.01269,0 c 0.45127,0.0667 0.67531,0.29397 0.67214,0.68167 -1e-5,0.38454 -0.22405,0.60858 -0.67214,0.67214 l -3.01269,0 0,3.13186 3.95178,0 c 0.44808,0.0667 0.67212,0.29079 0.67213,0.67214 -1e-5,0.38135 -0.22405,0.60381 -0.67213,0.66737 l -4.61438,0 c -0.39724,-0.0508 -0.62288,-0.27648 -0.6769,-0.67691 l 0,-8.41837 c 0.0604,-0.41948 0.28601,-0.64194 0.6769,-0.66737 l 4.61438,0 c 0.44808,0.035 0.67054,0.25901 0.66736,0.67214 0,0.40996 -0.22246,0.62924 -0.66736,0.65783"
         style="font-size:9.76264477px;font-variant:normal;font-weight:bold;font-stretch:normal;text-align:center;text-anchor:middle;fill:#ffffff;font-family:MS 33558;-inkscape-font-specification:MS 33558 Bold"
         id="path3256" />
      <path
         d="m 147.36798,-908.41876 -3.95177,0 0,2.6075 3.01269,0 c 0.45126,0.0667 0.67531,0.29397 0.67214,0.68167 -1e-5,0.38454 -0.22405,0.60858 -0.67214,0.67214 l -3.01269,0 0,3.13186 3.95177,0 c 0.44809,0.0667 0.67213,0.29079 0.67214,0.67214 -1e-5,0.38135 -0.22405,0.60381 -0.67214,0.66737 l -4.61437,0 c -0.39725,-0.0508 -0.62288,-0.27648 -0.6769,-0.67691 l 0,-8.41837 c 0.0604,-0.41948 0.28601,-0.64194 0.6769,-0.66737 l 4.61437,0 c 0.44809,0.035 0.67054,0.25901 0.66737,0.67214 0,0.40996 -0.22246,0.62924 -0.66737,0.65783"
         style="font-size:9.76264477px;font-variant:normal;font-weight:bold;font-stretch:normal;text-align:center;text-anchor:middle;fill:#ffffff;font-family:MS 33558;-inkscape-font-specification:MS 33558 Bold"
         id="path3258" />
      <path
         d="m 150.02792,-909.74873 2.24522,0 c 1.11545,10e-6 1.95125,0.50848 2.5074,1.52541 0.55613,1.01695 0.8342,2.13559 0.83421,3.35591 -10e-6,1.22034 -0.27967,2.33897 -0.83898,3.35591 -0.55614,1.01695 -1.39035,1.52542 -2.50263,1.52542 l -2.24522,0 0.01,0 -0.01,0 c -0.10487,-0.0159 -0.16207,-0.0254 -0.17161,-0.0286 -0.3305,-0.0794 -0.49417,-0.29554 -0.49099,-0.6483 l -0.005,0 0.005,-8.41837 c -0.003,-0.01 -0.005,-0.0222 -0.005,-0.0381 0.01,-0.17477 0.0779,-0.32255 0.20498,-0.44332 0.1303,-0.12393 0.28602,-0.1859 0.46716,-0.18591 l -0.005,0 m 2.24522,8.41838 c 0.006,0 0.0127,0 0.0191,0 0.006,0 0.0143,0 0.0238,0 0.006,0 0.0111,0 0.0143,0 0.006,-0.003 0.0143,-0.005 0.0238,-0.005 0.006,0 0.0127,0 0.0191,0 0.01,-0.003 0.0191,-0.005 0.0286,-0.005 0.006,0 0.0127,0 0.0191,0 0.006,-0.003 0.0143,-0.005 0.0238,-0.005 0.006,10e-6 0.0127,10e-6 0.0191,0 0.006,-0.003 0.0143,-0.005 0.0238,-0.005 0.0127,-0.006 0.0254,-0.01 0.0381,-0.01 0.006,10e-6 0.0127,-0.002 0.0191,-0.005 0.006,-0.006 0.0143,-0.0111 0.0238,-0.0143 0.006,0 0.0127,0 0.0191,0 0.01,-0.003 0.0191,-0.006 0.0286,-0.01 0.006,0 0.0127,-0.002 0.0191,-0.005 0.006,-0.003 0.0143,-0.006 0.0238,-0.01 0.0191,-0.006 0.0334,-0.0127 0.0429,-0.0191 0.0572,-0.0191 0.0731,-0.0254 0.0477,-0.0191 0.006,0 0.0127,-0.002 0.0191,-0.005 0.006,-0.006 0.0143,-0.0111 0.0238,-0.0143 0.0286,-0.0191 0.0413,-0.027 0.0381,-0.0238 0.0318,-0.0159 0.0477,-0.0238 0.0477,-0.0238 0.006,-0.003 0.0127,-0.006 0.0191,-0.01 0.006,-0.006 0.0143,-0.0127 0.0238,-0.0191 0.0286,-0.0191 0.0429,-0.0286 0.0429,-0.0286 0.006,-0.003 0.0127,-0.006 0.0191,-0.01 0.01,-0.006 0.0191,-0.0127 0.0286,-0.0191 0.006,-0.003 0.0127,-0.008 0.0191,-0.0143 0.006,-0.006 0.0143,-0.0127 0.0238,-0.0191 0.006,-0.003 0.0127,-0.006 0.0191,-0.01 0.006,-0.006 0.0143,-0.0127 0.0238,-0.0191 0.006,-0.006 0.0222,-0.0191 0.0477,-0.0381 0.0254,-0.0254 0.0381,-0.0381 0.0381,-0.0381 0.006,-0.006 0.0127,-0.0127 0.0191,-0.0191 0.006,-0.006 0.0143,-0.0143 0.0238,-0.0238 0.006,-0.006 0.0127,-0.0127 0.0191,-0.0191 0.006,-0.006 0.0143,-0.0143 0.0238,-0.0238 0.01,-0.006 0.0238,-0.0191 0.0429,-0.0381 0.006,-0.006 0.0127,-0.0127 0.0191,-0.0191 0.006,-0.006 0.0143,-0.0143 0.0238,-0.0238 0.006,-0.006 0.0127,-0.0127 0.0191,-0.0191 0.006,-0.01 0.0143,-0.0191 0.0238,-0.0286 0.0381,-0.0508 0.0508,-0.0667 0.0381,-0.0477 0.0222,-0.0222 0.0365,-0.0397 0.0429,-0.0524 0.0286,-0.0381 0.0413,-0.0556 0.0381,-0.0524 0.006,-0.01 0.0127,-0.0175 0.0191,-0.0238 0.006,-0.01 0.0143,-0.0191 0.0238,-0.0286 0.006,-0.01 0.0111,-0.0191 0.0143,-0.0286 0.006,-0.01 0.0143,-0.0191 0.0238,-0.0286 0.003,-0.01 0.008,-0.0191 0.0143,-0.0286 0.01,-0.0127 0.0175,-0.0238 0.0238,-0.0334 0.0191,-0.0254 0.0318,-0.0445 0.0381,-0.0572 0.006,-0.01 0.0111,-0.0191 0.0143,-0.0286 0.006,-0.0127 0.0143,-0.0238 0.0238,-0.0334 0.006,-0.01 0.0111,-0.0191 0.0143,-0.0286 0.006,-0.0127 0.0143,-0.0238 0.0238,-0.0334 0.006,-0.0159 0.0159,-0.0365 0.0286,-0.062 0.006,-0.01 0.0111,-0.0206 0.0143,-0.0334 0.006,-0.0127 0.0143,-0.0254 0.0238,-0.0381 0.006,-0.01 0.0111,-0.0191 0.0143,-0.0286 0.006,-0.0127 0.0143,-0.0254 0.0238,-0.0381 0.003,-0.01 0.006,-0.0206 0.01,-0.0334 0.006,-0.0127 0.0127,-0.0254 0.0191,-0.0381 0.01,-0.0159 0.0207,-0.0397 0.0334,-0.0715 0.0318,-0.0794 0.0429,-0.10487 0.0334,-0.0763 0.003,-0.01 0.006,-0.0206 0.01,-0.0334 0.006,-0.0159 0.0127,-0.0302 0.0191,-0.0429 0.003,-0.0127 0.006,-0.0254 0.01,-0.0381 0.006,-0.0127 0.0127,-0.027 0.0191,-0.0429 0.01,-0.0286 0.0175,-0.054 0.0238,-0.0763 0.003,-0.0127 0.006,-0.0254 0.01,-0.0381 0.006,-0.0127 0.0127,-0.027 0.0191,-0.0429 -0.0127,0.0318 -0.005,0.005 0.0238,-0.081 0.006,-0.0159 0.0159,-0.0429 0.0286,-0.081 -1e-5,-0.0127 0.002,-0.0254 0.005,-0.0381 0.006,-0.0159 0.0111,-0.0318 0.0143,-0.0477 0.003,-0.0127 0.006,-0.0254 0.01,-0.0381 0.003,-0.0159 0.008,-0.0318 0.0143,-0.0477 0,-0.01 0.002,-0.0207 0.005,-0.0334 0.006,-0.0159 0.0111,-0.0318 0.0143,-0.0477 0.003,-0.0222 0.008,-0.0524 0.0143,-0.0906 0,-0.0127 0.002,-0.0254 0.005,-0.0381 0.006,-0.0159 0.0111,-0.0318 0.0143,-0.0477 -1e-5,-0.0127 0.002,-0.0254 0.005,-0.0381 0.003,-0.0159 0.006,-0.0318 0.01,-0.0477 0.003,-0.0222 0.008,-0.0524 0.0143,-0.0906 -1e-5,-0.0127 0.002,-0.027 0.005,-0.0429 0.006,-0.0159 0.0111,-0.0318 0.0143,-0.0477 -1e-5,-0.0222 0.003,-0.0524 0.01,-0.0906 0,-0.0127 0,-0.0254 0,-0.0381 0.003,-0.0159 0.006,-0.0334 0.01,-0.0524 0.006,-0.0381 0.01,-0.0683 0.01,-0.0906 0.003,-0.0222 0.005,-0.0524 0.005,-0.0906 0.003,-0.0222 0.005,-0.054 0.005,-0.0953 0.003,-0.0222 0.005,-0.0524 0.005,-0.0906 -1e-5,-0.0159 -1e-5,-0.0302 0,-0.0429 0.003,-0.0159 0.006,-0.0334 0.01,-0.0524 0,-0.0127 0,-0.0254 0,-0.0381 0.003,-0.0159 0.005,-0.0334 0.005,-0.0524 -1e-5,-0.0127 -1e-5,-0.027 0,-0.0429 -1e-5,-0.0159 -1e-5,-0.0318 0,-0.0477 -1e-5,-0.0159 -1e-5,-0.0302 0,-0.0429 -1e-5,-0.0159 -1e-5,-0.0318 0,-0.0477 -1e-5,-0.0159 -0.002,-0.0302 -0.005,-0.0429 0,-0.0159 0,-0.0334 0,-0.0524 0,-0.0127 0,-0.027 0,-0.0429 0,-0.0159 0,-0.0318 0,-0.0477 0,-0.0191 -0.003,-0.0508 -0.01,-0.0953 -1e-5,-0.0381 -0.002,-0.0667 -0.005,-0.0858 0,-0.0222 -0.003,-0.0556 -0.01,-0.10011 -1e-5,-0.0381 -0.002,-0.0667 -0.005,-0.0858 0,-0.0222 -0.003,-0.0524 -0.01,-0.0906 -0.003,-0.0127 -0.006,-0.027 -0.01,-0.0429 0,-0.0159 0,-0.0318 0,-0.0477 -0.006,-0.0381 -0.0127,-0.0683 -0.0191,-0.0906 -0.003,-0.0127 -0.006,-0.0254 -0.01,-0.0381 -0.003,-0.0159 -0.005,-0.0318 -0.005,-0.0477 -0.003,-0.0222 -0.008,-0.0524 -0.0143,-0.0906 -0.003,-0.0222 -0.008,-0.0524 -0.0143,-0.0906 -0.0127,-0.0381 -0.0207,-0.0667 -0.0238,-0.0858 -0.006,-0.0381 -0.0111,-0.0651 -0.0143,-0.081 -0.006,-0.0127 -0.0111,-0.0254 -0.0143,-0.0381 -0.003,-0.0159 -0.006,-0.0318 -0.01,-0.0477 -0.003,-0.0127 -0.008,-0.0254 -0.0143,-0.0381 -0.006,-0.0159 -0.01,-0.0318 -0.01,-0.0477 -0.0286,-0.0858 -0.0366,-0.11281 -0.0238,-0.081 -0.006,-0.0222 -0.0143,-0.0492 -0.0238,-0.081 -0.006,-0.01 -0.0127,-0.0207 -0.0191,-0.0334 -0.003,-0.0159 -0.006,-0.0302 -0.01,-0.0429 -0.003,-0.01 -0.0127,-0.0365 -0.0286,-0.081 -0.0127,-0.0318 -0.0222,-0.0572 -0.0286,-0.0763 -0.006,-0.01 -0.0127,-0.0206 -0.0191,-0.0334 -0.003,-0.0159 -0.006,-0.0302 -0.01,-0.0429 -0.006,-0.01 -0.0127,-0.0207 -0.0191,-0.0334 -0.006,-0.0127 -0.0111,-0.0254 -0.0143,-0.0381 -0.0127,-0.0318 -0.0238,-0.0556 -0.0334,-0.0715 -0.0127,-0.0318 -0.0222,-0.054 -0.0286,-0.0667 -0.0127,-0.0318 -0.0238,-0.0556 -0.0334,-0.0715 -0.006,-0.01 -0.0127,-0.0191 -0.0191,-0.0286 -0.006,-0.0127 -0.0111,-0.0238 -0.0143,-0.0334 -0.0191,-0.0318 -0.0318,-0.054 -0.0381,-0.0667 -0.0286,-0.0445 -0.0413,-0.0651 -0.0381,-0.062 -0.01,-0.01 -0.0175,-0.0191 -0.0238,-0.0286 -0.003,-0.0127 -0.008,-0.0238 -0.0143,-0.0334 -0.006,-0.0127 -0.0191,-0.0318 -0.0381,-0.0572 -0.006,-0.01 -0.0127,-0.0191 -0.0191,-0.0286 -0.006,-0.01 -0.0111,-0.0191 -0.0143,-0.0286 -0.0159,-0.0286 -0.0429,-0.0651 -0.081,-0.10964 -0.006,-0.006 -0.0318,-0.0413 -0.0763,-0.10487 -0.0381,-0.0445 -0.0667,-0.0763 -0.0858,-0.0953 -0.0191,-0.0222 -0.0477,-0.0524 -0.0858,-0.0906 -0.0254,-0.0286 -0.0524,-0.0556 -0.081,-0.081 -0.0223,-0.0159 -0.0524,-0.0397 -0.0906,-0.0715 -0.0318,-0.0254 -0.062,-0.0493 -0.0906,-0.0715 -0.0731,-0.0477 -0.10329,-0.0683 -0.0906,-0.062 -0.0636,-0.0381 -0.0922,-0.0556 -0.0858,-0.0524 -1e-5,1e-5 -0.0286,-0.0143 -0.0858,-0.0429 -0.0127,-0.006 -0.0429,-0.0175 -0.0906,-0.0334 -0.0413,-0.0159 -0.0715,-0.027 -0.0906,-0.0334 -0.0159,-0.003 -0.0302,-0.006 -0.0429,-0.01 -0.0127,-0.006 -0.0254,-0.0127 -0.0381,-0.0191 -0.0572,-0.01 -0.0858,-0.0143 -0.0858,-0.0143 -0.0191,-0.003 -0.0477,-0.005 -0.0858,-0.005 -0.01,10e-6 -0.0175,10e-6 -0.0238,0 -0.006,10e-6 -0.0127,10e-6 -0.0191,0 l -1.57308,0 0,7.07411 0,0 1.57308,0"
         style="font-size:9.76264477px;font-variant:normal;font-weight:bold;font-stretch:normal;text-align:center;text-anchor:middle;fill:#ffffff;font-family:MS 33558;-inkscape-font-specification:MS 33558 Bold"
         id="path3260" />
      <path
         d="m 107.68644,-835.76381 c 0.52695,-0.38365 0.99382,-0.36054 1.40061,0.0693 0.40676,0.42528 0.39521,0.87365 -0.0347,1.34513 l -3.2103,3.0855 4.07008,8.02922 c 0.19413,0.65177 0.0323,1.10014 -0.48536,1.34513 -0.51773,0.245 -0.93837,0.0901 -1.26194,-0.46455 l -3.79966,-7.49533 -1.76809,1.70569 0,5.35975 c -0.1017,0.65177 -0.44145,0.97303 -1.01926,0.96378 -0.57781,-0.005 -0.88982,-0.32588 -0.93605,-0.96378 l 0,-12.25878 c 0.0462,-0.64251 0.35824,-0.96839 0.93605,-0.97765 0.57781,-0.0139 0.91756,0.31203 1.01926,0.97765 l 0,4.18102 5.08933,-4.90212"
         style="font-size:14.20020962px;font-variant:normal;font-weight:bold;font-stretch:normal;text-align:center;text-anchor:middle;fill:#ffffff;font-family:MS 33558;-inkscape-font-specification:MS 33558 Bold"
         id="path3262" />
      <path
         d="m 121.08927,-822.78393 c -1e-5,0.48536 -0.23575,0.79506 -0.70723,0.92911 -0.46688,0.12943 -0.82974,-0.009 -1.08859,-0.41602 l -5.82431,-9.33969 0,8.8266 c -0.10169,0.64714 -0.42989,0.97072 -0.98458,0.97072 -0.55008,0 -0.87365,-0.32358 -0.97072,-0.97072 l 0,-12.24491 c 0.0693,-0.48072 0.31433,-0.79736 0.73497,-0.94992 0.42527,-0.15252 0.77888,-0.009 1.06086,0.42989 l 5.8243,9.35356 0,-8.83353 c 0.0878,-0.661 0.42295,-0.98688 1.00539,-0.97765 0.58704,0.005 0.90368,0.33052 0.94991,0.97765 l 0,12.24491"
         style="font-size:14.20020962px;font-variant:normal;font-weight:bold;font-stretch:normal;text-align:center;text-anchor:middle;fill:#ffffff;font-family:MS 33558;-inkscape-font-specification:MS 33558 Bold"
         id="path3264" />
      <path
         d="m 132.30106,-831.94334 c 0.42526,1.28043 0.58473,2.60938 0.47842,3.98687 -0.1017,1.3775 -0.47843,2.63481 -1.13019,3.77193 -0.41141,0.70724 -0.97303,1.30816 -1.68489,1.80276 -0.71186,0.49461 -1.49768,0.66795 -2.35745,0.52003 -1.40061,-0.24499 -2.47302,-0.97534 -3.21724,-2.19105 -0.74422,-1.2157 -1.17179,-2.56777 -1.28273,-4.05621 -0.10632,-1.49305 0.0948,-2.94681 0.60323,-4.3613 0.51309,-1.41446 1.32896,-2.44295 2.44759,-3.08549 0.54545,-0.31431 1.11633,-0.47148 1.71263,-0.47149 1.13712,10e-6 2.06623,0.4299 2.78734,1.28967 0.7211,0.85516 1.26886,1.78659 1.64329,2.79428 m -4.37516,-2.11478 c -0.85054,10e-6 -1.49537,0.45763 -1.9345,1.37287 -0.43452,0.91526 -0.70956,1.69645 -0.82511,2.34359 -0.0878,0.4715 -0.12019,1.04237 -0.0971,1.71262 0.0231,0.67027 0.12019,1.33359 0.29122,1.98997 0.17103,0.65177 0.42757,1.24114 0.76964,1.7681 0.34206,0.52234 0.79044,0.86902 1.34514,1.04005 0.64714,0.20339 1.20414,0.0763 1.67102,-0.38135 0.47148,-0.46225 0.82741,-0.95223 1.06779,-1.46995 0.24498,-0.53158 0.41139,-1.22957 0.49922,-2.09397 0.0924,-0.8644 0.0716,-1.72649 -0.0624,-2.58627 -0.12944,-0.86439 -0.38598,-1.64097 -0.76964,-2.32972 -0.38367,-0.69336 -0.92912,-1.13481 -1.63635,-1.32434 -0.0925,-0.0277 -0.19877,-0.0416 -0.31895,-0.0416"
         style="font-size:14.20020962px;font-variant:normal;font-weight:bold;font-stretch:normal;text-align:center;text-anchor:middle;fill:#ffffff;font-family:MS 33558;-inkscape-font-specification:MS 33558 Bold"
         id="path3266" />
      <path
         d="m 138.16003,-822.7978 0,-11.27419 -2.54466,0 c -0.64715,-0.0508 -0.97072,-0.37441 -0.97072,-0.97072 0.005,-0.6009 0.32819,-0.9291 0.97072,-0.98458 l 7.0377,0 c 0.63789,0.0509 0.95684,0.37905 0.95685,0.98458 0.005,0.60094 -0.31434,0.92451 -0.95685,0.97072 l -2.53773,0 0,11.27419 c -0.10633,0.65639 -0.44839,0.97996 -1.02619,0.97072 -0.57319,-0.009 -0.8829,-0.33282 -0.92912,-0.97072"
         style="font-size:14.20020962px;font-variant:normal;font-weight:bold;font-stretch:normal;text-align:center;text-anchor:middle;fill:#ffffff;font-family:MS 33558;-inkscape-font-specification:MS 33558 Bold"
         id="path3268" />
      <path
         d="m 152.65839,-829.38481 0.11094,0.0485 0.12481,0.0624 0.11094,0.0624 c 0.0324,0.0231 0.067,0.0462 0.104,0.0693 0.0416,0.0185 0.0809,0.0393 0.11788,0.0624 0.91524,0.60093 1.48149,1.43297 1.69875,2.49613 0.0832,0.41603 0.10169,0.84361 0.0555,1.28274 -0.074,0.62865 -0.29585,1.21108 -0.66563,1.74729 -0.36519,0.53158 -0.82512,0.94298 -1.37981,1.2342 -0.5963,0.31432 -1.2134,0.47149 -1.8513,0.47149 -1.07241,0 -2.09629,-0.13637 -3.07162,-0.40909 -0.97534,-0.27735 -1.67103,-1.01463 -2.08705,-2.21185 -0.0555,-0.15254 -0.0971,-0.3097 -0.1248,-0.47149 -0.0277,-0.16178 -0.0601,-0.32357 -0.0971,-0.48536 -0.0693,-0.33281 0.0115,-0.62634 0.24267,-0.88058 0.23575,-0.25423 0.52696,-0.3513 0.87365,-0.29121 0.36517,0.074 0.61941,0.30046 0.76271,0.6795 l 0.0208,0.0624 c 0.22187,1.00308 0.60785,1.60169 1.15793,1.79583 0.55469,0.19414 1.32433,0.28197 2.30892,0.26348 0.90599,0 1.52771,-0.42527 1.86516,-1.2758 0.14791,-0.37904 0.17102,-0.77195 0.0693,-1.17873 -0.1017,-0.41139 -0.30278,-0.75346 -0.60323,-1.02619 -0.13406,-0.11555 -0.30972,-0.22418 -0.52696,-0.32588 l -3.21031,-1.40754 -0.104,-0.0555 c -1.0493,-0.55469 -1.70107,-1.34282 -1.9553,-2.36439 -0.30971,-1.18334 -0.0948,-2.2442 0.64483,-3.18257 0.74421,-0.94297 1.71955,-1.41446 2.92602,-1.41447 l 0.76271,0.0208 c 0.2496,0.0462 0.48997,0.0925 0.7211,0.13867 0.23112,0.0416 0.46455,0.11558 0.7003,0.22188 0.58243,0.27274 1.02849,0.64716 1.33821,1.12326 0.30969,0.47613 0.58935,0.99153 0.83897,1.54621 0.0231,0.0509 0.0439,0.11095 0.0624,0.18028 0.0508,0.22651 0.0277,0.43221 -0.0693,0.6171 -0.0555,0.11557 -0.11326,0.2034 -0.17334,0.26348 -0.0601,0.0601 -0.10864,0.1017 -0.14561,0.12481 -0.24038,0.17104 -0.50386,0.22188 -0.79044,0.15254 -0.2866,-0.0647 -0.50617,-0.24961 -0.6587,-0.5547 -0.12019,-0.26809 -0.24962,-0.54082 -0.38829,-0.81817 -0.13406,-0.28196 -0.32358,-0.5154 -0.56856,-0.70031 -0.1017,-0.0739 -0.20109,-0.1271 -0.29815,-0.15947 -0.0925,-0.037 -0.19646,-0.0763 -0.31202,-0.11788 l -0.45069,-0.0763 -0.6379,-0.0208 c -0.61941,0.009 -1.09321,0.27736 -1.42141,0.80431 -0.22188,0.33745 -0.30508,0.71418 -0.24961,1.13019 0.0647,0.51311 0.30508,0.91064 0.72111,1.1926 0.0185,0.0139 0.0393,0.0301 0.0624,0.0485 0.0231,0.0139 0.0485,0.0277 0.0763,0.0416 l 0.0763,0.0347 0.0832,0.0347 3.20336,1.41447"
         style="font-size:14.20020962px;font-variant:normal;font-weight:bold;font-stretch:normal;text-align:center;text-anchor:middle;fill:#ffffff;font-family:MS 33558;-inkscape-font-specification:MS 33558 Bold"
         id="path3270" />
    </g>
    <rect
       inkscape:transform-center-x="-33.935388"
       ry="0.72485673"
       rx="0.79089904"
       y="-161.3954"
       x="956.93726"
       height="3.1178949"
       width="20.677818"
       id="rect3954"
       style="fill:#ffffff;fill-opacity:1;stroke:none"
       transform="matrix(0.32407384,-0.94603179,0.94805364,0.31811052,0,0)"
       inkscape:transform-center-y="-98.281823" />
    <rect
       inkscape:transform-center-y="-96.870731"
       transform="matrix(0.38642981,-0.92231882,0.92473378,0.38061456,0,0)"
       style="fill:#ffffff;fill-opacity:1;stroke:none"
       id="rect3859"
       width="15.667051"
       height="2.2220478"
       x="949.30389"
       y="-215.82355"
       rx="0.49924272"
       ry="0.51154596"
       inkscape:transform-center-x="-43.314526" />
    <path
       transform="matrix(-1.2843563,-0.67964615,0.67964584,-1.2843572,206.5048,-613.68725)"
       d="M 76.52614,184.08321 C 46.096946,154.80372 45.164929,106.40026 74.444422,75.971071 103.72391,45.541877 152.12737,44.60986 182.55656,73.889353 c 9.97261,9.595813 17.15381,21.718401 20.77779,35.075017"
       sodipodi:ry="76.460999"
       sodipodi:rx="76.460999"
       sodipodi:cy="128.98628"
       sodipodi:cx="129.54135"
       id="path4308"
       style="fill:none;stroke:#44aa00;stroke-width:4.81729698;stroke-miterlimit:4;stroke-opacity:1;stroke-dasharray:none"
       sodipodi:type="arc"
       sodipodi:start="2.3369417"
       sodipodi:end="6.0182386"
       sodipodi:open="true"
       inkscape:label="white_arc_32_63kts"
       inkscape:transform-center-x="-39.176759"
       inkscape:transform-center-y="49.150219" />
    <path
       inkscape:transform-center-y="46.109417"
       inkscape:transform-center-x="-36.752997"
       inkscape:label="white_arc_32_63kts"
       sodipodi:end="4.2755063"
       sodipodi:start="2.1513907"
       sodipodi:type="arc"
       style="fill:none;stroke:#ffffff;stroke-width:5.13498592;stroke-miterlimit:4;stroke-opacity:1;stroke-dasharray:none"
       id="path3088"
       sodipodi:cx="129.54135"
       sodipodi:cy="128.98628"
       sodipodi:rx="76.460999"
       sodipodi:ry="76.460999"
       d="M 87.600887,192.91813 C 52.2923,169.75506 42.44642,122.35441 65.609499,87.045818 73.394708,75.178451 84.329396,65.712218 97.189403,59.706879"
       transform="matrix(-1.2048965,-0.63759817,0.63759792,-1.2048973,201.84254,-629.62838)"
       sodipodi:open="true" />
    <rect
       inkscape:transform-center-y="-80.748118"
       transform="matrix(0.62809172,-0.77813931,0.7820788,0.62317955,0,0)"
       style="fill:#ffffff;fill-opacity:1;stroke:none"
       id="rect3342"
       width="20.677818"
       height="3.1178949"
       x="851.97797"
       y="-446.6687"
       rx="0.79089904"
       ry="0.72485673"
       inkscape:transform-center-x="-65.503206" />
    <rect
       inkscape:transform-center-x="-93.491682"
       ry="0.72485673"
       rx="0.79089904"
       y="-724.25244"
       x="594.72278"
       height="3.1178949"
       width="20.677818"
       id="rect3344"
       style="fill:#ffffff;fill-opacity:1;stroke:none"
       transform="matrix(0.8981003,-0.43979069,0.44543705,0.89531326,0,0)"
       inkscape:transform-center-y="-45.499776" />
    <rect
       inkscape:transform-center-y="16.353395"
       transform="matrix(0.98793427,0.15487373,-0.14864992,0.98888988,0,0)"
       style="fill:#ffffff;fill-opacity:1;stroke:none"
       id="rect3354"
       width="20.677818"
       height="3.1178949"
       x="91.238297"
       y="-878.31586"
       rx="0.79089904"
       ry="0.72485673"
       inkscape:transform-center-x="-102.6815" />
    <rect
       inkscape:transform-center-x="-74.731826"
       ry="0.72485673"
       rx="0.79089904"
       y="-715.16821"
       x="-411.37939"
       height="3.1178949"
       width="20.677818"
       id="rect3362"
       style="fill:#ffffff;fill-opacity:1;stroke:none"
       transform="matrix(0.72043646,0.69352095,-0.68897082,0.72478908,0,0)"
       inkscape:transform-center-y="72.291608" />
    <rect
       inkscape:transform-center-y="102.08224"
       transform="matrix(0.19235972,0.98132448,-0.98009379,0.19853503,0,0)"
       style="fill:#ffffff;fill-opacity:1;stroke:none"
       id="rect3364"
       width="20.677818"
       height="3.1178949"
       x="-731.33551"
       y="-293.81937"
       rx="0.79089904"
       ry="0.72485673"
       inkscape:transform-center-x="-19.75197" />
    <rect
       inkscape:transform-center-x="42.372094"
       ry="0.72485673"
       rx="0.79089904"
       y="233.33054"
       x="-752.90326"
       height="3.1178949"
       width="20.677818"
       id="rect3366"
       style="fill:#ffffff;fill-opacity:1;stroke:none"
       transform="matrix(-0.40529274,0.91418696,-0.91672085,-0.39952833,0,0)"
       inkscape:transform-center-y="94.950137" />
    <rect
       inkscape:transform-center-y="53.47498"
       transform="matrix(-0.85635247,0.51639175,-0.52177372,-0.85308393,0,0)"
       style="fill:#ffffff;fill-opacity:1;stroke:none"
       id="rect3368"
       width="20.677818"
       height="3.1178949"
       x="-468.28165"
       y="675.61353"
       rx="0.79089904"
       ry="0.72485673"
       inkscape:transform-center-x="89.170353" />
    <rect
       inkscape:transform-center-x="103.41529"
       ry="0.72485673"
       rx="0.79089904"
       y="847.87097"
       x="-131.04578"
       height="3.1178949"
       width="20.677818"
       id="rect3370"
       style="fill:#ffffff;fill-opacity:1;stroke:none"
       transform="matrix(-0.9943555,0.10609967,-0.11235874,-0.99366771,0,0)"
       inkscape:transform-center-y="10.779744" />
    <rect
       inkscape:transform-center-y="-33.935403"
       transform="matrix(-0.94603179,-0.32407384,0.31811052,-0.94805364,0,0)"
       style="fill:#ffffff;fill-opacity:1;stroke:none"
       id="rect3372"
       width="20.677818"
       height="3.1178949"
       x="248.29173"
       y="861.00592"
       rx="0.79089904"
       ry="0.72485673"
       inkscape:transform-center-x="98.281802" />
    <rect
       inkscape:transform-center-x="74.731847"
       ry="0.72485673"
       rx="0.79089904"
       y="712.55713"
       x="598.64893"
       height="3.1178949"
       width="20.677818"
       id="rect3374"
       style="fill:#ffffff;fill-opacity:1;stroke:none"
       transform="matrix(-0.72043645,-0.69352095,0.68897082,-0.72478908,0,0)"
       inkscape:transform-center-y="-72.291571" />
    <rect
       inkscape:transform-center-y="-97.101443"
       transform="matrix(-0.35984255,-0.93301304,0.93072872,-0.36571034,0,0)"
       style="fill:#ffffff;fill-opacity:1;stroke:none"
       id="rect3376"
       width="20.677818"
       height="3.1178949"
       x="854.37433"
       y="430.34161"
       rx="0.79089904"
       ry="0.72485673"
       inkscape:transform-center-x="37.178312" />
    <rect
       inkscape:transform-center-x="-51.592549"
       ry="0.51154596"
       rx="0.49924272"
       y="-289.05478"
       x="927.5993"
       height="2.2220478"
       width="15.667051"
       id="rect3378"
       style="fill:#ffffff;fill-opacity:1;stroke:none"
       transform="matrix(0.46534471,-0.88512954,0.88804214,0.45976206,0,0)"
       inkscape:transform-center-y="-92.727007" />
    <rect
       inkscape:transform-center-y="-87.877592"
       transform="matrix(0.54071805,-0.84120389,0.84459197,0.5354105,0,0)"
       style="fill:#ffffff;fill-opacity:1;stroke:none"
       id="rect3380"
       width="15.667051"
       height="2.2220478"
       x="899.58276"
       y="-360.07544"
       rx="0.49924272"
       ry="0.51154596"
       inkscape:transform-center-x="-59.477922" />
    <rect
       inkscape:transform-center-x="-75.544253"
       ry="0.51154596"
       rx="0.49924272"
       y="-509.64621"
       x="814.20496"
       height="2.2220478"
       width="15.667051"
       id="rect3382"
       style="fill:#ffffff;fill-opacity:1;stroke:none"
       transform="matrix(0.69506671,-0.71894525,0.72330764,0.69052593,0,0)"
       inkscape:transform-center-y="-74.519605" />
    <rect
       inkscape:transform-center-y="-65.779774"
       transform="matrix(0.76976213,-0.63833084,0.64316517,0.76572748,0,0)"
       style="fill:#ffffff;fill-opacity:1;stroke:none"
       id="rect3390"
       width="15.667051"
       height="2.2220478"
       x="754.29492"
       y="-584.7749"
       rx="0.49924272"
       ry="0.51154596"
       inkscape:transform-center-x="-83.265395" />
    <rect
       inkscape:transform-center-x="-89.980855"
       ry="0.51154596"
       rx="0.49924272"
       y="-652.82367"
       x="686.46094"
       height="2.2220478"
       width="15.667051"
       id="rect3392"
       style="fill:#ffffff;fill-opacity:1;stroke:none"
       transform="matrix(0.8351603,-0.55000662,0.55525449,0.8316805,0,0)"
       inkscape:transform-center-y="-56.245461" />
    <rect
       inkscape:transform-center-y="-31.376578"
       transform="matrix(0.94800458,-0.31825668,0.32421969,0.94598181,0,0)"
       style="fill:#ffffff;fill-opacity:1;stroke:none"
       id="rect3394"
       width="15.667051"
       height="2.2220478"
       x="500.63342"
       y="-780.39813"
       rx="0.49924272"
       ry="0.51154596"
       inkscape:transform-center-x="-101.36873" />
    <rect
       inkscape:transform-center-x="-104.96206"
       ry="0.51154596"
       rx="0.49924272"
       y="-831.76575"
       x="377.40265"
       height="2.2220478"
       width="15.667051"
       id="rect3412"
       style="fill:#ffffff;fill-opacity:1;stroke:none"
       transform="matrix(0.98538552,-0.17033899,0.17654031,0.98429341,0,0)"
       inkscape:transform-center-y="-15.590857" />
    <rect
       inkscape:transform-center-y="0.55775361"
       transform="matrix(0.99982967,-0.01845632,0.0247516,0.99969363,0,0)"
       style="fill:#ffffff;fill-opacity:1;stroke:none"
       id="rect3414"
       width="15.667051"
       height="2.2220478"
       x="247.67368"
       y="-863.73969"
       rx="0.49924272"
       ry="0.51154596"
       inkscape:transform-center-x="-106.1122" />
    <rect
       inkscape:transform-center-x="-101.03327"
       ry="0.51154596"
       rx="0.49924272"
       y="-866.99811"
       x="-19.119083"
       height="2.2220478"
       width="15.667051"
       id="rect3416"
       style="fill:#ffffff;fill-opacity:1;stroke:none"
       transform="matrix(0.95910442,0.28305248,-0.27700765,0.96086771,0,0)"
       inkscape:transform-center-y="32.440509" />
    <rect
       inkscape:transform-center-y="47.432481"
       transform="matrix(0.90488299,0.42566039,-0.41995415,0.90754532,0,0)"
       style="fill:#ffffff;fill-opacity:1;stroke:none"
       id="rect3418"
       width="15.667051"
       height="2.2220478"
       x="-149.97273"
       y="-838.20679"
       rx="0.49924272"
       ry="0.51154596"
       inkscape:transform-center-x="-94.922441" />
    <rect
       inkscape:transform-center-x="-86.602081"
       ry="0.51154596"
       rx="0.49924272"
       y="-789.87183"
       x="-275.04889"
       height="2.2220478"
       width="15.667051"
       id="rect3420"
       style="fill:#ffffff;fill-opacity:1;stroke:none"
       transform="matrix(0.82959862,0.55836021,-0.55312539,0.83309802,0,0)"
       inkscape:transform-center-y="61.320364" />
    <rect
       inkscape:transform-center-y="84.524045"
       transform="matrix(0.62330012,0.78198271,-0.77804246,0.62821169,0,0)"
       style="fill:#ffffff;fill-opacity:1;stroke:none"
       id="rect3422"
       width="15.667051"
       height="2.2220478"
       x="-496.42529"
       y="-639.50012"
       rx="0.49924272"
       ry="0.51154596"
       inkscape:transform-center-x="-64.154469" />
    <rect
       inkscape:transform-center-x="-50.549718"
       ry="0.51154596"
       rx="0.49924272"
       y="-540.96356"
       x="-587.57257"
       height="2.2220478"
       width="15.667051"
       id="rect3424"
       style="fill:#ffffff;fill-opacity:1;stroke:none"
       transform="matrix(0.49708799,0.86770014,-0.86455291,0.5025418,0,0)"
       inkscape:transform-center-y="93.299737" />
    <rect
       inkscape:transform-center-y="99.903671"
       transform="matrix(0.35930515,0.93322013,-0.93093918,0.36517426,0,0)"
       style="fill:#ffffff;fill-opacity:1;stroke:none"
       id="rect3426"
       width="15.667051"
       height="2.2220478"
       x="-662.75635"
       y="-429.80231"
       rx="0.49924272"
       ry="0.51154596"
       inkscape:transform-center-x="-35.768321" />
    <rect
       inkscape:transform-center-x="-4.0712436"
       ry="0.51154596"
       rx="0.49924272"
       y="-180.18932"
       x="-758.64545"
       height="2.2220478"
       width="15.667051"
       id="rect3428"
       style="fill:#ffffff;fill-opacity:1;stroke:none"
       transform="matrix(0.0620507,0.998073,-0.9976625,0.06833407,0,0)"
       inkscape:transform-center-y="106.0356" />
    <rect
       inkscape:transform-center-y="105.42085"
       transform="matrix(-0.09050172,0.9958963,-0.99644642,-0.08422903,0,0)"
       style="fill:#ffffff;fill-opacity:1;stroke:none"
       id="rect3430"
       width="15.667051"
       height="2.2220478"
       x="-777.11877"
       y="-47.547813"
       rx="0.49924272"
       ry="0.51154596"
       inkscape:transform-center-x="12.106637" />
    <rect
       inkscape:transform-center-x="28.00271"
       ry="0.51154596"
       rx="0.49924272"
       y="86.23317"
       x="-775.21655"
       height="2.2220478"
       width="15.667051"
       id="rect3432"
       style="fill:#ffffff;fill-opacity:1;stroke:none"
       transform="matrix(-0.24094753,0.97053814,-0.97203608,-0.23483154,0,0)"
       inkscape:transform-center-y="102.35219" />
    <rect
       inkscape:transform-center-y="89.1944"
       transform="matrix(-0.52164219,0.85316436,-0.85643208,-0.51625971,0,0)"
       style="fill:#ffffff;fill-opacity:1;stroke:none"
       id="rect3434"
       width="15.667051"
       height="2.2220478"
       x="-710.93573"
       y="344.80347"
       rx="0.49924272"
       ry="0.51154596"
       inkscape:transform-center-x="57.484541" />
    <rect
       inkscape:transform-center-x="70.384079"
       ry="0.51154596"
       rx="0.49924272"
       y="463.57404"
       x="-650.05334"
       height="2.2220478"
       width="15.667051"
       id="rect3436"
       style="fill:#ffffff;fill-opacity:1;stroke:none"
       transform="matrix(-0.64535731,0.76388084,-0.76792933,-0.64053458,0,0)"
       inkscape:transform-center-y="79.411593" />
    <rect
       inkscape:transform-center-y="67.780287"
       transform="matrix(-0.75405047,0.65681648,-0.6615515,-0.74989973,0,0)"
       style="fill:#ffffff;fill-opacity:1;stroke:none"
       id="rect3438"
       width="15.667051"
       height="2.2220478"
       x="-571.75311"
       y="571.58673"
       rx="0.49924272"
       ry="0.51154596"
       inkscape:transform-center-x="81.645276" />
    <rect
       inkscape:transform-center-x="96.206935"
       ry="0.51154596"
       rx="0.49924272"
       y="722.41278"
       x="-405.65326"
       height="2.2220478"
       width="15.667051"
       id="rect3440"
       style="fill:#ffffff;fill-opacity:1;stroke:none"
       transform="matrix(-0.89638063,0.4432852,-0.44892067,-0.89357161,0,0)"
       inkscape:transform-center-y="44.769926" />
    <rect
       inkscape:transform-center-y="34.030093"
       transform="matrix(-0.93931192,0.3430643,-0.34897209,-0.93713312,0,0)"
       style="fill:#ffffff;fill-opacity:1;stroke:none"
       id="rect3444"
       width="15.667051"
       height="2.2220478"
       x="-324.50836"
       y="772.49084"
       rx="0.49924272"
       ry="0.51154596"
       inkscape:transform-center-x="100.50906" />
    <rect
       inkscape:transform-center-x="103.61642"
       ry="0.51154596"
       rx="0.49924272"
       y="813.40277"
       x="-238.33817"
       height="2.2220478"
       width="15.667051"
       id="rect3446"
       style="fill:#ffffff;fill-opacity:1;stroke:none"
       transform="matrix(-0.97107731,0.23876529,-0.24487516,-0.96955462,0,0)"
       inkscape:transform-center-y="22.885737" />
    <rect
       inkscape:transform-center-y="-0.083460495"
       transform="matrix(-0.99973716,0.022926,-0.02922061,-0.99957299,0,0)"
       style="fill:#ffffff;fill-opacity:1;stroke:none"
       id="rect3448"
       width="15.667051"
       height="2.2220478"
       x="-55.06683"
       y="865.89764"
       rx="0.49924272"
       ry="0.51154596"
       inkscape:transform-center-x="106.11368" />
    <rect
       inkscape:transform-center-x="105.47389"
       ry="0.51154596"
       rx="0.49924272"
       y="876.85657"
       x="39.855705"
       height="2.2220478"
       width="15.667051"
       id="rect3450"
       style="fill:#ffffff;fill-opacity:1;stroke:none"
       transform="matrix(-0.99629095,-0.08604853,0.07977345,-0.99681302,0,0)"
       inkscape:transform-center-y="-11.635258" />
    <rect
       inkscape:transform-center-y="-23.048717"
       transform="matrix(-0.9810015,-0.19400017,0.18781922,-0.98220361,0,0)"
       style="fill:#ffffff;fill-opacity:1;stroke:none"
       id="rect3452"
       width="15.667051"
       height="2.2220478"
       x="135.47221"
       y="877.40869"
       rx="0.49924272"
       ry="0.51154596"
       inkscape:transform-center-x="103.5803" />
    <rect
       inkscape:transform-center-x="96.13638"
       ry="0.51154596"
       rx="0.49924272"
       y="847.39014"
       x="324.24588"
       height="2.2220478"
       width="15.667051"
       id="rect3454"
       style="fill:#ffffff;fill-opacity:1;stroke:none"
       transform="matrix(-0.91575852,-0.40172917,0.39595492,-0.91826995,0,0)"
       inkscape:transform-center-y="-44.921245" />
    <rect
       inkscape:transform-center-y="-55.12033"
       transform="matrix(-0.86658056,-0.4990372,0.49357068,-0.86970569,0,0)"
       style="fill:#ffffff;fill-opacity:1;stroke:none"
       id="rect3456"
       width="15.667051"
       height="2.2220478"
       x="415.15903"
       y="817.17633"
       rx="0.49924272"
       ry="0.51154596"
       inkscape:transform-center-x="90.674521" />
    <rect
       inkscape:transform-center-x="84.1348"
       ry="0.51154596"
       rx="0.49924272"
       y="777.2652"
       x="502.30481"
       height="2.2220478"
       width="15.667051"
       id="rect3458"
       style="fill:#ffffff;fill-opacity:1;stroke:none"
       transform="matrix(-0.80710128,-0.59041301,0.5853192,-0.81080295,0,0)"
       inkscape:transform-center-y="-64.664189" />
    <rect
       inkscape:transform-center-y="-81.341512"
       transform="matrix(-0.66018099,-0.75110656,0.74693468,-0.66489742,0,0)"
       style="fill:#ffffff;fill-opacity:1;stroke:none"
       id="rect3460"
       width="15.667051"
       height="2.2220478"
       x="661.20758"
       y="670.35828"
       rx="0.49924272"
       ry="0.51154596"
       inkscape:transform-center-x="68.144557" />
    <rect
       inkscape:transform-center-x="58.884138"
       ry="0.51154596"
       rx="0.49924272"
       y="604.6333"
       x="731.07562"
       height="2.2220478"
       width="15.667051"
       id="rect3462"
       style="fill:#ffffff;fill-opacity:1;stroke:none"
       transform="matrix(-0.57448647,-0.81851408,0.81488046,-0.57962905,0,0)"
       inkscape:transform-center-y="-88.276692" />
    <rect
       inkscape:transform-center-y="-94.162537"
       transform="matrix(-0.48196285,-0.87619165,0.87313949,-0.48747044,0,0)"
       style="fill:#ffffff;fill-opacity:1;stroke:none"
       id="rect3464"
       width="15.667051"
       height="2.2220478"
       x="793.4209"
       y="531.73761"
       rx="0.49924272"
       ry="0.51154596"
       inkscape:transform-center-x="48.923725" />
    <rect
       inkscape:transform-center-x="-27.744844"
       ry="0.51154596"
       rx="0.49924272"
       y="-81.246498"
       x="975.17926"
       height="2.2453949"
       width="12.370329"
       id="rect3466"
       style="fill:#ffffff;fill-opacity:1;stroke:none"
       transform="matrix(0.23850167,-0.97114209,0.97262462,0.23238192,0,0)"
       inkscape:transform-center-y="-102.4223" />
    <text
       inkscape:transform-center-y="-83.421204"
       inkscape:transform-center-x="-67.1186"
       sodipodi:linespacing="125%"
       id="text3472"
       y="-898.0473"
       x="191.94672"
       style="font-size:54.04249191px;font-style:normal;font-weight:normal;line-height:125%;letter-spacing:0px;word-spacing:0px;fill:#ffffff;fill-opacity:1;stroke:none;font-family:Sans"
       xml:space="preserve"><tspan
         id="tspan3474"
         style="font-size:14px;font-style:normal;font-variant:normal;font-weight:bold;font-stretch:normal;fill:#ffffff;font-family:MS 33558;-inkscape-font-specification:MS 33558 Bold"
         y="-898.0473"
         x="191.94672"
         sodipodi:role="line">80</tspan></text>
    <text
       xml:space="preserve"
       style="font-size:54.04249191px;font-style:normal;font-weight:normal;line-height:125%;letter-spacing:0px;word-spacing:0px;fill:#ffffff;fill-opacity:1;stroke:none;font-family:Sans"
       x="194.94672"
       y="-847.0473"
       id="text3476"
       sodipodi:linespacing="125%"
       inkscape:transform-center-x="-67.1186"
       inkscape:transform-center-y="-83.421204"><tspan
         sodipodi:role="line"
         x="194.94672"
         y="-847.0473"
         style="font-size:14px;font-style:normal;font-variant:normal;font-weight:bold;font-stretch:normal;fill:#ffffff;font-family:MS 33558;-inkscape-font-specification:MS 33558 Bold"
         id="tspan3478">100</tspan></text>
    <text
       inkscape:transform-center-y="-83.421204"
       inkscape:transform-center-x="-67.1186"
       sodipodi:linespacing="125%"
       id="text3480"
       y="-801.0473"
       x="170.94672"
       style="font-size:54.04249191px;font-style:normal;font-weight:normal;line-height:125%;letter-spacing:0px;word-spacing:0px;fill:#ffffff;fill-opacity:1;stroke:none;font-family:Sans"
       xml:space="preserve"><tspan
         id="tspan3482"
         style="font-size:14px;font-style:normal;font-variant:normal;font-weight:bold;font-stretch:normal;fill:#ffffff;font-family:MS 33558;-inkscape-font-specification:MS 33558 Bold"
         y="-801.0473"
         x="170.94672"
         sodipodi:role="line">120</tspan></text>
    <text
       xml:space="preserve"
       style="font-size:54.04249191px;font-style:normal;font-weight:normal;line-height:125%;letter-spacing:0px;word-spacing:0px;fill:#ffffff;fill-opacity:1;stroke:none;font-family:Sans"
       x="132.94672"
       y="-778.5473"
       id="text3484"
       sodipodi:linespacing="125%"
       inkscape:transform-center-x="-67.1186"
       inkscape:transform-center-y="-83.421204"><tspan
         sodipodi:role="line"
         x="132.94672"
         y="-778.5473"
         style="font-size:14px;font-style:normal;font-variant:normal;font-weight:bold;font-stretch:normal;fill:#ffffff;font-family:MS 33558;-inkscape-font-specification:MS 33558 Bold"
         id="tspan3486">140</tspan></text>
    <text
       inkscape:transform-center-y="-83.421204"
       inkscape:transform-center-x="-67.1186"
       sodipodi:linespacing="125%"
       id="text3488"
       y="-784.5473"
       x="84.446716"
       style="font-size:54.04249191px;font-style:normal;font-weight:normal;line-height:125%;letter-spacing:0px;word-spacing:0px;fill:#ffffff;fill-opacity:1;stroke:none;font-family:Sans"
       xml:space="preserve"><tspan
         id="tspan3490"
         style="font-size:14px;font-style:normal;font-variant:normal;font-weight:bold;font-stretch:normal;fill:#ffffff;font-family:MS 33558;-inkscape-font-specification:MS 33558 Bold"
         y="-784.5473"
         x="84.446716"
         sodipodi:role="line">160</tspan></text>
    <text
       xml:space="preserve"
       style="font-size:54.04249191px;font-style:normal;font-weight:normal;line-height:125%;letter-spacing:0px;word-spacing:0px;fill:#ffffff;fill-opacity:1;stroke:none;font-family:Sans"
       x="50.446716"
       y="-816.5473"
       id="text3492"
       sodipodi:linespacing="125%"
       inkscape:transform-center-x="-67.1186"
       inkscape:transform-center-y="-83.421204"><tspan
         sodipodi:role="line"
         x="50.446716"
         y="-816.5473"
         style="font-size:14px;font-style:normal;font-variant:normal;font-weight:bold;font-stretch:normal;fill:#ffffff;font-family:MS 33558;-inkscape-font-specification:MS 33558 Bold"
         id="tspan3494">180</tspan></text>
    <text
       inkscape:transform-center-y="-83.421204"
       inkscape:transform-center-x="-67.1186"
       sodipodi:linespacing="125%"
       id="text3496"
       y="-852.0473"
       x="37.446716"
       style="font-size:54.04249191px;font-style:normal;font-weight:normal;line-height:125%;letter-spacing:0px;word-spacing:0px;fill:#ffffff;fill-opacity:1;stroke:none;font-family:Sans"
       xml:space="preserve"><tspan
         id="tspan3498"
         style="font-size:14px;font-style:normal;font-variant:normal;font-weight:bold;font-stretch:normal;fill:#ffffff;font-family:MS 33558;-inkscape-font-specification:MS 33558 Bold"
         y="-852.0473"
         x="37.446716"
         sodipodi:role="line">200</tspan></text>
    <text
       xml:space="preserve"
       style="font-size:54.04249191px;font-style:normal;font-weight:normal;line-height:125%;letter-spacing:0px;word-spacing:0px;fill:#ffffff;fill-opacity:1;stroke:none;font-family:Sans"
       x="41.946716"
       y="-889.0473"
       id="text3500"
       sodipodi:linespacing="125%"
       inkscape:transform-center-x="-67.1186"
       inkscape:transform-center-y="-83.421204"><tspan
         sodipodi:role="line"
         x="41.946716"
         y="-889.0473"
         style="font-size:14px;font-style:normal;font-variant:normal;font-weight:bold;font-stretch:normal;fill:#ffffff;font-family:MS 33558;-inkscape-font-specification:MS 33558 Bold"
         id="tspan3502">220</tspan></text>
    <text
       inkscape:transform-center-y="-83.421204"
       inkscape:transform-center-x="-67.1186"
       sodipodi:linespacing="125%"
       id="text3504"
       y="-918.5473"
       x="60.946716"
       style="font-size:54.04249191px;font-style:normal;font-weight:normal;line-height:125%;letter-spacing:0px;word-spacing:0px;fill:#ffffff;fill-opacity:1;stroke:none;font-family:Sans"
       xml:space="preserve"><tspan
         id="tspan3506"
         style="font-size:14px;font-style:normal;font-variant:normal;font-weight:bold;font-stretch:normal;fill:#ffffff;font-family:MS 33558;-inkscape-font-specification:MS 33558 Bold"
         y="-918.5473"
         x="60.946716"
         sodipodi:role="line">240</tspan></text>
    <text
       xml:space="preserve"
       style="font-size:54.04249191px;font-style:normal;font-weight:normal;line-height:125%;letter-spacing:0px;word-spacing:0px;fill:#ffffff;fill-opacity:1;stroke:none;font-family:Sans"
       x="86.946716"
       y="-941.0473"
       id="text3508"
       sodipodi:linespacing="125%"
       inkscape:transform-center-x="-67.1186"
       inkscape:transform-center-y="-83.421204"><tspan
         sodipodi:role="line"
         x="86.946716"
         y="-941.0473"
         style="font-size:12px;font-style:normal;font-variant:normal;font-weight:bold;font-stretch:normal;fill:#ffffff;font-family:MS 33558;-inkscape-font-specification:MS 33558 Bold"
         id="tspan3510">260</tspan></text>
    <rect
       inkscape:transform-center-x="-97.724237"
       ry="0.79409689"
       rx="0.53425181"
       y="-776.20465"
       x="500.52505"
       height="3.1989741"
       width="26.915136"
       id="rect3512"
       style="fill:#ff0000;fill-opacity:1;stroke:none"
       transform="matrix(0.9441811,-0.32942685,0.33536557,0.94208807,0,0)"
       inkscape:transform-center-y="-31.671969" />
    <rect
       inkscape:transform-center-y="62.766811"
       transform="matrix(0.80480929,0.59353349,-0.58845406,0.80853065,0,0)"
       style="fill:#0000ff;fill-opacity:1;stroke:none"
       id="rect4284"
       width="26.915136"
       height="3.1989741"
       x="-318.12839"
       y="-773.41907"
       rx="0.53425181"
       ry="0.79409689"
       inkscape:transform-center-x="-80.978456" />
    <rect
       inkscape:transform-center-y="-74.309258"
       transform="matrix(-0.70561207,-0.70859834,0.70414125,-0.71005993,0,0)"
       style="fill:#ff0000;fill-opacity:1;stroke:none"
       id="rect4286"
       width="26.915136"
       height="3.1989741"
       x="609.01642"
       y="703.78345"
       rx="0.53425181"
       ry="0.79409689"
       inkscape:transform-center-x="70.535942" />
  </g>
</svg>
